<svg width="34" height="19" viewBox="0 0 34 19" xmlns="http://www.w3.org/2000/svg">
    <g fill-rule="nonzero" fill="none">
        <path d="m.87 8.614 1.947-1.545 2.484-5.212A3.224 3.224 0 0 1 8.205 0h12.558c1.071 0 2.06.589 2.589 1.542l3.006 5.42c2.937.08 5.735 2.04 5.735 2.04 1.066.486 1.149 1.903 1.149 3.1 0 .292-.045.529.24.529.287 0 .518.237.518.53v1.89c0 .292-.231.53-.517.53H2.24C1.003 15.58 0 14.553 0 13.285V10.43c0-.71.32-1.38.87-1.815z" fill="#FF473E"/>
        <path d="m23.524 5.695-1.692-3.05a1.867 1.867 0 0 0-1.63-.97h-6.544v4.78l9.45-.026c.367-.001.597-.407.416-.734zm-18.188.077 1.37-2.874a2.137 2.137 0 0 1 1.912-1.223h3.179V6.46l-6.028.017c-.356.001-.589-.38-.433-.706z" fill="#FFF"/>
        <path d="M30.42 14.997c0-2.66-2.106-4.816-4.703-4.816-2.598 0-4.704 2.156-4.704 4.816v.584h9.407v-.584zm-17.227.584H3.785v-.584c0-2.66 2.106-4.816 4.704-4.816s4.704 2.156 4.704 4.816v.584z" fill="#D32A2A"/>
        <path d="M21.816 15.103c0 2.152 1.704 3.897 3.805 3.897 2.102 0 3.806-1.745 3.806-3.897 0-2.152-1.704-3.897-3.806-3.897-2.101 0-3.805 1.745-3.805 3.897zM8.394 11.206c2.101 0 3.805 1.745 3.805 3.897C12.2 17.255 10.495 19 8.394 19c-2.102 0-3.806-1.745-3.806-3.897 0-2.152 1.704-3.897 3.806-3.897zm12.834-6.332c.185.112.372.24.532.374l.557-1.727 1.31 2.242c.183.298-.026.685-.37.685l-1.308.002c-.191.201-.465.386-.734.54-.386.218-.91-.01-.91-.399V5.264c0-.394.54-.622.923-.39zm-15.783 1.6c-.29 0-.478-.311-.35-.577l1.827-3.815a.667.667 0 0 1 .6-.383h.872v4.784l-2.95-.009z" fill="#2B3B47"/>
        <path d="M23.127 15.103c0 1.41 1.117 2.554 2.494 2.554 1.378 0 2.495-1.143 2.495-2.554 0-1.41-1.117-2.554-2.495-2.554-1.377 0-2.494 1.144-2.494 2.554zM8.394 12.55c1.377 0 2.494 1.144 2.494 2.554s-1.117 2.554-2.494 2.554c-1.378 0-2.495-1.143-2.495-2.554 0-1.41 1.117-2.554 2.495-2.554z" fill="#9BA5A8"/>
        <path d="M24.748 15.103c0 .494.39.895.873.895s.874-.4.874-.895a.884.884 0 0 0-.874-.895c-.482 0-.873.401-.873.895zm-16.354-.895c.482 0 .873.401.873.895a.884.884 0 0 1-.873.895.884.884 0 0 1-.874-.895c0-.494.39-.895.874-.895z" fill="#E5E4DF"/>
        <path d="M.005 12.496H.52c.555 0 .9-.461.9-1.03 0-.567-.345-1.028-.9-1.028H.005v2.058zm33.254-.142h-.583c-.554 0-.9-.46-.9-1.028 0-.568.346-1.029.9-1.029h.394c.212.421.189 2.057.189 2.057z" fill="#FFD469"/>
    </g>
</svg>
