<svg width="31" height="21" viewBox="0 0 31 21" xmlns="http://www.w3.org/2000/svg">
    <g transform="matrix(-1 0 0 1 31 0)" fill-rule="nonzero" fill="none">
        <path d="M11.983 11.103a.758.758 0 0 1-.585-.274c-.835-1.007-2.026-1.75-3.353-2.093-1.338-.345-2.728-.256-3.915.252a.76.76 0 0 1-.996-.397.754.754 0 0 1 .398-.992c3.061-1.308 6.861-.355 9.035 2.268a.753.753 0 0 1-.584 1.236zm17.885-1.268a.753.753 0 0 0-.114-1.062c-2.66-2.133-6.574-2.307-9.309-.412a.754.754 0 0 0-.19 1.052.76.76 0 0 0 1.056.188c1.06-.734 2.404-1.1 3.785-1.03 1.368.07 2.685.56 3.706 1.379a.757.757 0 0 0 1.066-.115z" fill="#C376FF"/>
        <path d="M25.156 14.2 19.59 6.868l1.485-3.156a.696.696 0 0 0-.337-.928.701.701 0 0 0-.93.336l-1.415 3.005-6.25-.595-.63-2.128a.698.698 0 0 0-.198-.316L9.165 1.113a.702.702 0 0 0-.99.04.696.696 0 0 0 .042.986l2.008 1.842.62 2.097-5.039 8.179a.696.696 0 0 0 .23.959.702.702 0 0 0 .963-.23l4.641-7.53 3.615 5.21-.707 1.633-.006.016a.7.7 0 0 0-.04.137l-.003.018a.688.688 0 0 0-.005.159l.002.02a.672.672 0 0 0 .029.138l.006.02a.693.693 0 0 0 .03.071l.007.014c.01.019.02.038.033.057l.004.008.008.01a.683.683 0 0 0 .037.05l.012.014c.035.04.075.077.118.109l.017.01c.016.012.032.022.05.032l.025.013.022.012.023.009a.689.689 0 0 0 .08.028l.03.009c.018.004.038.008.057.01l.022.004a.695.695 0 0 0 .085.006h.004l9.399.046h.004a.696.696 0 0 0 .558-1.118zM13.037 7.016l4.726.45-1.784 3.792-2.942-4.242zm3.253 6.868 2.63-5.588 4.265 5.622-6.895-.034z" fill="#AD62F7"/>
        <path d="M6.403 8.243C2.867 8.243 0 11.1 0 14.622 0 18.144 2.867 21 6.403 21c3.536 0 6.402-2.856 6.402-6.378 0-3.523-2.866-6.379-6.402-6.379zm0 1.763c2.555 0 4.633 2.07 4.633 4.616 0 2.545-2.078 4.616-4.633 4.616s-4.634-2.071-4.634-4.616c0-2.546 2.079-4.616 4.634-4.616m18.194-1.763c-3.536 0-6.402 2.856-6.402 6.379 0 3.522 2.866 6.378 6.402 6.378S31 18.144 31 14.622c0-3.523-2.867-6.379-6.403-6.379zm0 1.763c2.555 0 4.634 2.07 4.634 4.616 0 2.545-2.079 4.616-4.634 4.616s-4.633-2.071-4.633-4.616c0-2.546 2.078-4.616 4.633-4.616m-13.532-7.36c-3.064 0-4.045-1.318-4.146-1.469A.753.753 0 0 1 7.547 0H9.69a.757.757 0 0 1 .672 1.106c.214.02.449.03.704.03.419 0 .758.338.758.755s-.34.756-.758.756zM7.182 14.623a.778.778 0 0 1-.78.776.778.778 0 0 1-.778-.776c0-.429.348-.777.779-.777.43 0 .779.348.779.777zm18.189 0c0 .425-.346.77-.774.77a.772.772 0 0 1-.773-.77c0-.426.346-.771.773-.771.428 0 .774.345.774.77zm-7.66-12.04 3.985-.323c.605-.05 1.136.4 1.185 1.002a1.096 1.096 0 0 1-1.142 1.184l-.148-.008-3.96-.19a.83.83 0 0 1-.792-.869.831.831 0 0 1 .764-.787l.109-.008z" fill="#464A4C"/>
        <ellipse fill="#597B91" cx="15.191" cy="14.575" rx="1.474" ry="1.469"/>
    </g>
</svg>
