<?xml version="1.0" encoding="UTF-8"?>
<svg width="10px" height="21px" viewBox="0 0 10 21" version="1.1" xmlns="http://www.w3.org/2000/svg" xmlns:xlink="http://www.w3.org/1999/xlink">
    <title>Group 34</title>
    <defs>
        <polygon id="path-1" points="0 20.4316667 9.95987251 20.4316667 9.95987251 0 0 0"></polygon>
    </defs>
    <g id="mvp" stroke="none" stroke-width="1" fill="none" fill-rule="evenodd">
        <g id="Armirene_Otros_negocios_pedidos_creacion_negocio_2" transform="translate(-996.000000, -330.000000)">
            <g id="datafono" transform="translate(965.000000, 330.000000)">
                <g id="Group-34" transform="translate(31.000000, 0.000000)">
                    <path d="M9.04153183,3.34711053 L5.14882649,3.34711053 L0.918698497,3.34711053 C0.413459051,3.34711053 0.000178909152,3.76250526 0.000178909152,4.26997018 L0.000178909152,19.5083035 C0.000178909152,20.0161281 0.413459051,20.4315228 0.918698497,20.4315228 L5.14882649,20.4315228 L9.04153183,20.4315228 C9.54641346,20.4315228 9.9596936,20.0161281 9.9596936,19.5083035 L9.9596936,4.26997018 C9.9596936,3.76250526 9.54641346,3.34711053 9.04153183,3.34711053" id="Fill-1" fill="#4E6174"></path>
                    <path d="M8.28639208,5.01419211 L5.14868337,5.01419211 L1.67390981,5.01419211 C1.52935122,5.01419211 1.41127118,5.13287632 1.41127118,5.27781491 L1.41127118,10.6926921 C1.41127118,10.8379904 1.52935122,10.9566746 1.67390981,10.9566746 L5.14868337,10.9566746 L8.28639208,10.9566746 C8.43059286,10.9566746 8.5486729,10.8379904 8.5486729,10.6926921 L8.5486729,5.27781491 C8.5486729,5.13287632 8.43059286,5.01419211 8.28639208,5.01419211" id="Fill-3" fill="#00DD96"></path>
                    <path d="M3.42231739,12.0684219 L1.7119459,12.0684219 C1.67437497,12.0684219 1.64396042,12.0993518 1.64396042,12.1363956 L1.64396042,13.5372289 C1.64396042,13.5749921 1.67437497,13.6052026 1.7119459,13.6052026 L3.42231739,13.6052026 C3.45988831,13.6052026 3.48994505,13.5749921 3.48994505,13.5372289 L3.48994505,12.1363956 C3.48994505,12.0993518 3.45988831,12.0684219 3.42231739,12.0684219" id="Fill-5" fill="#E6E8E9"></path>
                    <path d="M5.83515778,12.0684219 L4.12478629,12.0684219 C4.08757318,12.0684219 4.05680081,12.0993518 4.05680081,12.1363956 L4.05680081,13.5372289 C4.05680081,13.5749921 4.08757318,13.6052026 4.12478629,13.6052026 L5.83515778,13.6052026 C5.87237089,13.6052026 5.90278544,13.5749921 5.90278544,13.5372289 L5.90278544,12.1363956 C5.90278544,12.0993518 5.87237089,12.0684219 5.83515778,12.0684219" id="Fill-7" fill="#E6E8E9"></path>
                    <path d="M8.24796239,12.0684219 L6.53794872,12.0684219 C6.50037779,12.0684219 6.46960542,12.0993518 6.46960542,12.1363956 L6.46960542,13.5372289 C6.46960542,13.5749921 6.50037779,13.6052026 6.53794872,13.6052026 L8.24796239,13.6052026 C8.2851755,13.6052026 8.31559005,13.5749921 8.31559005,13.5372289 L8.31559005,12.1363956 C8.31559005,12.0993518 8.2851755,12.0684219 8.24796239,12.0684219" id="Fill-9" fill="#E6E8E9"></path>
                    <path d="M3.42231739,14.0417447 L1.7119459,14.0417447 C1.67437497,14.0417447 1.64396042,14.0726746 1.64396042,14.1100781 L1.64396042,15.5105518 C1.64396042,15.5483149 1.67437497,15.5785254 1.7119459,15.5785254 L3.42231739,15.5785254 C3.45988831,15.5785254 3.48994505,15.5483149 3.48994505,15.5105518 L3.48994505,14.1100781 C3.48994505,14.0726746 3.45988831,14.0417447 3.42231739,14.0417447" id="Fill-11" fill="#E6E8E9"></path>
                    <path d="M5.83515778,14.0417447 L4.12478629,14.0417447 C4.08757318,14.0417447 4.05680081,14.0726746 4.05680081,14.1100781 L4.05680081,15.5105518 C4.05680081,15.5483149 4.08757318,15.5785254 4.12478629,15.5785254 L5.83515778,15.5785254 C5.87237089,15.5785254 5.90278544,15.5483149 5.90278544,15.5105518 L5.90278544,14.1100781 C5.90278544,14.0726746 5.87237089,14.0417447 5.83515778,14.0417447" id="Fill-13" fill="#E6E8E9"></path>
                    <path d="M8.24796239,14.0417447 L6.53794872,14.0417447 C6.50037779,14.0417447 6.46960542,14.0726746 6.46960542,14.1100781 L6.46960542,15.5105518 C6.46960542,15.5483149 6.50037779,15.5785254 6.53794872,15.5785254 L8.24796239,15.5785254 C8.2851755,15.5785254 8.31559005,15.5483149 8.31559005,15.5105518 L8.31559005,14.1100781 C8.31559005,14.0726746 8.2851755,14.0417447 8.24796239,14.0417447" id="Fill-15" fill="#E6E8E9"></path>
                    <path d="M3.42231739,16.0151035 L1.7119459,16.0151035 C1.67437497,16.0151035 1.64396042,16.0456737 1.64396042,16.0834368 L1.64396042,17.4839105 C1.64396042,17.521314 1.67437497,17.5522439 1.7119459,17.5522439 L3.42231739,17.5522439 C3.45988831,17.5522439 3.48994505,17.521314 3.48994505,17.4839105 L3.48994505,16.0834368 C3.48994505,16.0456737 3.45988831,16.0151035 3.42231739,16.0151035" id="Fill-17" fill="#E6E8E9"></path>
                    <path d="M5.83515778,16.0151035 L4.12478629,16.0151035 C4.08757318,16.0151035 4.05680081,16.0456737 4.05680081,16.0834368 L4.05680081,17.4839105 C4.05680081,17.521314 4.08757318,17.5522439 4.12478629,17.5522439 L5.83515778,17.5522439 C5.87237089,17.5522439 5.90278544,17.521314 5.90278544,17.4839105 L5.90278544,16.0834368 C5.90278544,16.0456737 5.87237089,16.0151035 5.83515778,16.0151035" id="Fill-19" fill="#E6E8E9"></path>
                    <path d="M8.24796239,16.0151035 L6.53794872,16.0151035 C6.50037779,16.0151035 6.46960542,16.0456737 6.46960542,16.0834368 L6.46960542,17.4839105 C6.46960542,17.521314 6.50037779,17.5522439 6.53794872,17.5522439 L8.24796239,17.5522439 C8.2851755,17.5522439 8.31559005,17.521314 8.31559005,17.4839105 L8.31559005,16.0834368 C8.31559005,16.0456737 8.2851755,16.0151035 8.24796239,16.0151035" id="Fill-21" fill="#E6E8E9"></path>
                    <path d="M3.42231739,17.9884263 L1.7119459,17.9884263 C1.67437497,17.9884263 1.64396042,18.0189965 1.64396042,18.0567596 L1.64396042,19.4572333 C1.64396042,19.4946368 1.67437497,19.5255667 1.7119459,19.5255667 L3.42231739,19.5255667 C3.45988831,19.5255667 3.48994505,19.4946368 3.48994505,19.4572333 L3.48994505,18.0567596 C3.48994505,18.0189965 3.45988831,17.9884263 3.42231739,17.9884263" id="Fill-23" fill="#FF4545"></path>
                    <path d="M5.83515778,17.9884263 L4.12478629,17.9884263 C4.08757318,17.9884263 4.05680081,18.0189965 4.05680081,18.0567596 L4.05680081,19.4572333 C4.05680081,19.4946368 4.08757318,19.5255667 4.12478629,19.5255667 L5.83515778,19.5255667 C5.87237089,19.5255667 5.90278544,19.4946368 5.90278544,19.4572333 L5.90278544,18.0567596 C5.90278544,18.0189965 5.87237089,17.9884263 5.83515778,17.9884263" id="Fill-25" fill="#E6E8E9"></path>
                    <path d="M8.24796239,17.9884263 L6.53794872,17.9884263 C6.50037779,17.9884263 6.46960542,18.0189965 6.46960542,18.0567596 L6.46960542,19.4572333 C6.46960542,19.4946368 6.50037779,19.5255667 6.53794872,19.5255667 L8.24796239,19.5255667 C8.2851755,19.5255667 8.31559005,19.4946368 8.31559005,19.4572333 L8.31559005,18.0567596 C8.31559005,18.0189965 8.2851755,17.9884263 8.24796239,17.9884263" id="Fill-27" fill="#00B9ED"></path>
                    <mask id="mask-2" fill="white">
                        <use xlink:href="#path-1"></use>
                    </mask>
                    <g id="Clip-30"></g>
                    <polygon id="Fill-29" fill="#E6E8E9" mask="url(#mask-2)" points="1.58191472 3.34725439 8.40658325 3.34725439 8.40658325 0 1.58191472 0"></polygon>
                    <polygon id="Fill-31" fill="#C3CBCD" mask="url(#mask-2)" points="1.9705054 1.00953509 8.06236204 1.00953509 8.06236204 0.489482456 1.9705054 0.489482456"></polygon>
                    <polygon id="Fill-32" fill="#C3CBCD" mask="url(#mask-2)" points="1.9705054 1.98310526 8.06236204 1.98310526 8.06236204 1.46341228 1.9705054 1.46341228"></polygon>
                    <polygon id="Fill-33" fill="#C3CBCD" mask="url(#mask-2)" points="1.9705054 2.95667544 8.06236204 2.95667544 8.06236204 2.43698246 1.9705054 2.43698246"></polygon>
                </g>
            </g>
        </g>
    </g>
</svg>