<?xml version="1.0" encoding="UTF-8"?>
<svg width="27px" height="14px" viewBox="0 0 27 14" version="1.1" xmlns="http://www.w3.org/2000/svg" xmlns:xlink="http://www.w3.org/1999/xlink">
    <title>efectivo</title>
    <g id="mvp" stroke="none" stroke-width="1" fill="none" fill-rule="evenodd">
        <g id="Armirene_Otros_negocios_pedidos_creacion_negocio_2" transform="translate(-826.000000, -334.000000)">
            <g id="efectivo" transform="translate(797.000000, 331.000000)">
                <g transform="translate(29.000000, 3.000000)">
                    <polygon id="Fill-1" fill="#8BCB0A" points="0 13.4017735 26.8907846 13.4017735 26.8907846 8.35662707e-05 0 8.35662707e-05"></polygon>
                    <g id="Group-10" transform="translate(1.307830, 1.201098)">
                        <path d="M1.33434633,3.90214372 C2.38829389,3.90214372 3.33679765,2.53650373 3.33679765,1.45900023 L10.0981157,1.45900023 C8.9032494,2.2672532 8.09402954,3.80570825 8.09402954,5.57664465 C8.09402954,7.24161903 8.81022999,8.7324413 9.88886284,9.54052714 L3.33679765,9.54052714 C3.33679765,8.46302364 2.38829389,7.853157 1.33434633,7.853157 L1.33434633,3.90214372 Z M20.9029173,9.54052714 L14.1020374,9.54052714 C15.1805068,8.7324413 15.8968707,7.24161903 15.8968707,5.57664465 C15.8968707,3.80570825 15.0876509,2.2672532 13.8927846,1.45900023 L20.9029173,1.45900023 C20.9029173,2.53650373 21.8867325,3.90214372 22.9408435,3.90214372 L22.9408435,7.853157 C21.8867325,7.853157 20.9029173,8.46302364 20.9029173,9.54052714 L20.9029173,9.54052714 Z M0.016871008,10.8874483 L24.2581553,10.8874483 L24.2581553,0.112246215 L0.016871008,0.112246215 L0.016871008,10.8874483 Z" id="Fill-2" fill="#419B19"></path>
                        <path d="M13.1351913,6.58480486 C13.1351913,6.39377236 13.0608085,6.24920271 12.9120428,6.15143018 C12.7632772,6.05365764 12.5551687,5.96574592 12.2873905,5.88752789 L12.2873905,7.17779111 C12.5592557,7.17344567 12.768672,7.12130031 12.9151489,7.02135505 C13.0617894,6.92157693 13.1351913,6.77600448 13.1351913,6.58480486 L13.1351913,6.58480486 Z M11.2931127,4.42127411 C11.2931127,4.60378284 11.3558885,4.74049726 11.4811133,4.83191876 C11.6065015,4.923006 11.7966273,5.00356388 12.0516541,5.07292389 L12.0516541,3.78917884 C11.7922133,3.80221518 11.6011067,3.86422135 11.4778437,3.97486309 C11.3545807,4.08567197 11.2931127,4.23458706 11.2931127,4.42127411 L11.2931127,4.42127411 Z M13.3965939,4.25180171 C13.3583399,4.20851438 13.3019397,4.16171727 13.2275568,4.11174464 C13.153174,4.06177201 13.0671842,4.01397211 12.9694239,3.96834492 C12.8716636,3.92288487 12.7644215,3.88360872 12.6475342,3.85118501 C12.5308104,3.81859416 12.4106535,3.79803686 12.2873905,3.78917884 L12.2873905,5.13810558 L12.4085283,5.16417826 C12.6380524,5.22066905 12.84518,5.28367802 13.029911,5.35320516 C13.214969,5.4227323 13.3709277,5.5074685 13.4986046,5.60724662 C13.6259546,5.70719188 13.7246958,5.82986717 13.7949916,5.97543961 C13.8649605,6.12101205 13.899945,6.29800542 13.899945,6.50658683 C13.899945,6.73689547 13.8595657,6.93344334 13.7789707,7.09639757 C13.6982122,7.25918466 13.5865562,7.39506342 13.4441662,7.50353244 C13.3019397,7.61216859 13.1361722,7.69356214 12.9470273,7.74804734 C12.7578824,7.80236542 12.5551687,7.83161362 12.3385594,7.83595906 L12.3385594,8.52019969 L12.0068609,8.52019969 L12.0068609,7.82292272 C11.7008287,7.80102836 11.4098365,7.73935645 11.1337209,7.63723847 C10.8574418,7.53512049 10.6047036,7.39289069 10.3751795,7.21038196 L10.7001752,6.58480486 C10.7469302,6.63695021 10.8149373,6.69344101 10.9041967,6.75427725 C10.9934561,6.8151135 11.0974286,6.87377702 11.2166046,6.93010069 C11.3354537,6.98659149 11.4662367,7.03656412 11.6084632,7.08001858 C11.7508532,7.12347304 11.8984745,7.15389116 12.0516541,7.17110581 L12.0516541,5.8223462 C12.0261514,5.81365531 11.9993409,5.80596721 11.9718765,5.79961618 C11.9442486,5.79293088 11.917765,5.78540991 11.8922623,5.77671902 C11.6669886,5.71588277 11.4703237,5.65187101 11.3025945,5.5845166 C11.1348652,5.51716218 10.9955813,5.43576863 10.8852332,5.34016882 C10.7745581,5.24456901 10.6906935,5.1325902 10.6333124,5.00456668 C10.5759314,4.87637602 10.5473226,4.72110989 10.5473226,4.53860115 C10.5473226,4.3256743 10.5834514,4.13681452 10.655709,3.97168757 C10.7279666,3.80656062 10.8298139,3.66433083 10.9615778,3.54483106 C11.0933416,3.4253313 11.2471752,3.3319042 11.4237322,3.26454979 C11.5999623,3.19719538 11.7943386,3.15491084 12.0068609,3.13752906 L12.0068609,2.47936111 L12.3385594,2.47936111 L12.3385594,3.13752906 C12.614675,3.15491084 12.8697018,3.21156877 13.103313,3.30700146 C13.3369241,3.40260127 13.5430709,3.51775559 13.7215897,3.65246442 L13.3965939,4.25180171 Z" id="Fill-4" fill="#FFFFFF"></path>
                        <path d="M18.4856223,5.4997804 C18.4856223,6.08106738 18.9464689,6.55221401 19.515048,6.55221401 C20.0836271,6.55221401 20.5444738,6.08106738 20.5444738,5.4997804 C20.5444738,4.91849342 20.0836271,4.44734679 19.515048,4.44734679 C18.9464689,4.44734679 18.4856223,4.91849342 18.4856223,5.4997804" id="Fill-6" fill="#FFFFFF"></path>
                        <path d="M5.78945313,5.4997804 C5.78945313,6.08106738 5.3286065,6.55221401 4.76002738,6.55221401 C4.19161173,6.55221401 3.73076511,6.08106738 3.73076511,5.4997804 C3.73076511,4.91849342 4.19161173,4.44734679 4.76002738,4.44734679 C5.3286065,4.44734679 5.78945313,4.91849342 5.78945313,5.4997804" id="Fill-8" fill="#FFFFFF"></path>
                    </g>
                </g>
            </g>
        </g>
    </g>
</svg>