<?xml version="1.0" encoding="UTF-8"?>
<svg id="Capa_1" data-name="Capa 1" xmlns="http://www.w3.org/2000/svg" viewBox="0 0 406 416.5">
  <defs>
    <style>
      .cls-1 {
        fill: #498ac9;
      }

      .cls-1, .cls-2 {
        stroke-width: 0px;
      }

      .cls-2 {
        fill: #344456;
      }
    </style>
  </defs>
  <g>
    <path class="cls-2" d="m103.95,216.99c0-12.9,2.46-25.23,6.9-36.56l-43.53-25.13c-12.17-7.03-22.13-1.28-22.13,12.78v111.72c0,14.06,9.96,31.31,22.13,38.34l96.76,55.86c12.17,7.03,22.13,1.28,22.13-12.78v-45.54c-46.78-8.52-82.26-49.45-82.26-98.69Z"/>
    <path class="cls-2" d="m204.3,116.63c30.05,0,56.99,13.22,75.38,34.15l42.03-24.27c12.17-7.03,12.17-18.53,0-25.56l-96.76-55.86c-12.17-7.03-32.09-7.03-44.27,0l-96.76,55.86c-12.17,7.03-12.17,18.53,0,25.56l44,25.4c18.41-21.58,45.78-35.29,76.37-35.29Z"/>
    <path class="cls-2" d="m338.33,155.3l-41.12,23.74c4.79,11.71,7.45,24.52,7.45,37.95,0,50.28-36.98,91.92-85.22,99.22v45.02c0,14.06,9.96,19.81,22.13,12.78l96.76-55.86c12.17-7.03,22.14-24.28,22.14-38.34v-111.72c0-14.06-9.96-19.81-22.14-12.78Z"/>
  </g>
  <circle class="cls-1" cx="202.82" cy="216.99" r="45.11"/>
</svg>