<svg width="15" height="20" viewBox="0 0 15 20" xmlns="http://www.w3.org/2000/svg">
    <g fill-rule="nonzero" fill="none">
        <path d="M13.643 0c0 .363-.308.66-.686.66a.674.674 0 0 1-.686-.66h-1.357c0 .363-.307.66-.685.66A.674.674 0 0 1 9.543 0H8.186c0 .363-.308.66-.686.66A.674.674 0 0 1 6.814 0H5.457c0 .363-.308.66-.686.66A.674.674 0 0 1 4.086 0H2.729c0 .363-.308.66-.686.66A.674.674 0 0 1 1.357 0H0v20h1.357c0-.363.308-.66.686-.66.378 0 .686.297.686.66h1.357c0-.363.307-.66.685-.66.378 0 .686.297.686.66h1.357c0-.363.308-.66.686-.66.378 0 .686.297.686.66h1.357c0-.363.307-.66.686-.66.378 0 .685.297.685.66h1.357c0-.363.308-.66.686-.66.378 0 .686.297.686.66H15V0h-1.357z" fill="#EDEDEE"/>
        <path d="M13.643 0c0 .363-.308.66-.686.66a.674.674 0 0 1-.686-.66h-1.357c0 .363-.307.66-.685.66A.674.674 0 0 1 9.543 0H8.186c0 .363-.308.66-.686.66v18.68c.378 0 .686.297.686.66h1.357c0-.363.307-.66.686-.66.378 0 .685.297.685.66h1.357c0-.363.308-.66.686-.66.378 0 .686.297.686.66H15V0h-1.357z" fill="#DDDCDF"/>
        <path fill="#7F7F83" d="M1 6.123h7.239V7.75H1zM1 9.748h7.239v1.627H1zM1 13.373h7.239V15H1z"/>
        <path d="M11.13 6v1.199c-.904.35-1.44 1.267-1.274 2.194.174.978 1.093 1.703 2.137 1.663a.6.6 0 0 1 .526.503.612.612 0 0 1-.446.704.598.598 0 0 1-.727-.368l-1.378.484c.209.529.641.932 1.162 1.138v1.212h1.47v-1.17c.962-.321 1.541-1.27 1.37-2.23-.174-.977-1.092-1.702-2.137-1.662a.6.6 0 0 1-.526-.503.612.612 0 0 1 .446-.704c.302-.08.605.061.727.368l1.378-.484a2.058 2.058 0 0 0-1.257-1.173V6H11.13z" fill="#FFB61C"/>
    </g>
</svg>
