<svg width="30" height="20" viewBox="0 0 30 20" xmlns="http://www.w3.org/2000/svg">
    <g transform="matrix(-1 0 0 1 30 0)" fill-rule="nonzero" fill="none">
        <g transform="translate(.2)" fill="#414753">
            <path d="M9.163 3.679a.494.494 0 0 1-.22-.048.531.531 0 0 1-.247-.707L9.91.306A.524.524 0 0 1 10.382 0h3.299c.286 0 .52.238.52.53 0 .293-.234.53-.52.53h-2.972L9.636 3.374a.52.52 0 0 1-.473.306zM5.418 2.809H5.39v4.039h.027c1.092 0 1.979-.904 1.979-2.02 0-1.115-.887-2.02-1.98-2.02z"/>
            <ellipse cx="3.918" cy="16.001" rx="3.918" ry="3.999"/>
        </g>
        <ellipse fill="#BDBDBE" cx="4.118" cy="16.001" rx="2.039" ry="2.081"/>
        <ellipse fill="#414753" cx="23.303" cy="16.001" rx="3.918" ry="3.999"/>
        <ellipse fill="#BDBDBE" cx="23.303" cy="16.001" rx="2.039" ry="2.081"/>
        <path d="M25.322 7.93h-9.796c-.886 0-1.606.734-1.606 1.638 0 .769.52 1.421 1.253 1.598 1.16.28 2.213 1.068 2.213 2.027 0 1-.587 2.026-1.666 2.026-1.08 0-7.204 1.04-6.544-4.162.66-5.202 1.86-7.589 1.86-7.589l-.894-1.36-2.579 1.285-1.979 5.203S.94 8.466.007 12.69c0 0 7.376-.3 8.276 4.481H30v-2.999S28.92 7.93 25.322 7.93z" fill="#6EB1E1"/>
        <path d="M7.69 15.648c.273.442.48.945.593 1.523H30v-1.523H7.69z" fill="#4485C5"/>
        <g fill="#414753">
            <path d="M19.831 7.93h-5.297c-.22 0-.4-.184-.4-.409V5.556c0-.224.18-.408.4-.408h5.297c.22 0 .4.184.4.408V7.52a.4.4 0 0 1-.4.408zM25.915 7.93h-4.644c-.22 0-.4-.184-.4-.409V5.556c0-.224.18-.408.4-.408h4.644c.22 0 .4.184.4.408V7.52c0 .225-.18.408-.4.408zM28.587 8.78h-1.659a.348.348 0 0 1-.346-.354V2.87c0-.197.153-.354.346-.354h1.66c.193 0 .346.157.346.354v5.556c0 .197-.16.353-.347.353z"/>
        </g>
        <path d="M8.003 16.253a2.645 2.645 0 0 0-.313-.605c.12.19.22.394.313.605z" fill="#6EB1E1"/>
        <path d="M5.578 8.603S.933 8.473 0 12.696c0 0 5.53-.217 7.597 2.823-3.292-4.89-2.02-6.916-2.02-6.916z" fill="#89CBF4"/>
        <path d="M.433 11.465A5.52 5.52 0 0 0 0 12.696s5.53-.217 7.597 2.823c-.747-1.109-1.253-2.061-1.6-2.884-2.025-1.047-4.291-1.19-5.564-1.17z" fill="#4485C5"/>
        <g fill="#89CBF4">
            <path d="M25.335 11.459h-5.29a.227.227 0 0 1-.227-.232v-1.094c0-.13.1-.232.226-.232h5.291c.127 0 .227.102.227.232v1.101a.23.23 0 0 1-.227.225zM25.335 14.11h-5.29a.227.227 0 0 1-.227-.23v-1.095c0-.13.1-.231.226-.231h5.291c.127 0 .227.102.227.23v1.102a.23.23 0 0 1-.227.225z"/>
        </g>
    </g>
</svg>
