<svg width="24" height="31" viewBox="0 0 24 31" xmlns="http://www.w3.org/2000/svg">
    <path d="M11.927 19.908c1.6 0 2.91 1.184 2.91 2.631v5.33c0 1.447-1.31 2.631-2.91 2.631s-2.909-1.184-2.909-2.632V22.54c0-1.447 1.31-2.631 2.91-2.631zm0-19.408c2.328 0 4.291 1.382 4.946 3.29h5.6c.8 0 1.454.592 1.527 1.381 0 .724-.655 1.316-1.455 1.316h-5.6l-.078.22c-.393 1.02-1.158 1.859-2.176 2.411 3.927.987 6.836 4.342 6.836 8.224v6.842c0 1.184-1.09 2.171-2.4 2.171h-1.963v-3.75c0-2.566-2.328-4.67-5.164-4.67s-5.164 2.104-5.164 4.67v3.75H4.873c-1.31 0-2.4-.987-2.4-2.17v-6.909c0-3.881 2.909-7.17 6.836-8.223C8.22 8.46 7.42 7.539 7.055 6.42h-5.6C.655 6.421 0 5.83 0 5.105 0 4.382.655 3.79 1.455 3.79h5.527C7.636 1.882 9.6.5 11.927.5zm0 2.04c-1.6 0-2.909 1.184-2.909 2.631 0 1.447 1.31 2.632 2.91 2.632 1.672 0 2.981-1.185 2.908-2.632 0-1.447-1.309-2.632-2.909-2.632z" fill="#0581AE" fill-rule="nonzero"/>
</svg>
